<svg width="450" height="450" viewBox="0 0 450 450" xmlns="http://www.w3.org/2000/svg">
<path d="M0 60 A60 60 0 0 0 60 0" fill="none" stroke="rgba(148,163,184,0.3)" stroke-width="0.8"/>
<path d="M0 120 A120 120 0 0 0 120 0" fill="none" stroke="rgba(148,163,184,0.3)" stroke-width="0.8" stroke-dasharray="4 4"/>
<path d="M0 190 A190 190 0 0 0 190 0" fill="none" stroke="rgba(2,132,199,0.32)" stroke-width="1.4"/>
<path d="M0 270 A270 270 0 0 0 270 0" fill="none" stroke="rgba(148,163,184,0.3)" stroke-width="0.8" stroke-dasharray="4 4"/>
<path d="M0 350 A350 350 0 0 0 350 0" fill="none" stroke="rgba(2,132,199,0.32)" stroke-width="1.4"/>
<path d="M0 420 A420 420 0 0 0 420 0" fill="none" stroke="rgba(148,163,184,0.3)" stroke-width="0.8"/>
<circle cx="149.9" cy="40.1" r="7.5" fill="none" stroke="rgba(2,132,199,0.32)" stroke-width="1"/>
<circle cx="149.9" cy="40.1" r="3.5" fill="none" stroke="rgba(148,163,184,0.3)" stroke-width="0.7"/>
<circle cx="149.9" cy="40.1" r="1.5" fill="rgba(2,132,199,0.3)"/>
<circle cx="153.3" cy="24.4" r="7.5" fill="none" stroke="rgba(2,132,199,0.32)" stroke-width="1"/>
<circle cx="153.3" cy="24.4" r="3.5" fill="none" stroke="rgba(148,163,184,0.3)" stroke-width="0.7"/>
<circle cx="153.3" cy="24.4" r="1.5" fill="rgba(2,132,199,0.3)"/>
<circle cx="134.5" cy="77.5" r="7.5" fill="none" stroke="rgba(2,132,199,0.32)" stroke-width="1"/>
<circle cx="134.5" cy="77.5" r="3.5" fill="none" stroke="rgba(148,163,184,0.3)" stroke-width="0.7"/>
<circle cx="134.5" cy="77.5" r="1.5" fill="rgba(2,132,199,0.3)"/>
<circle cx="141.7" cy="63.2" r="7.5" fill="none" stroke="rgba(2,132,199,0.32)" stroke-width="1"/>
<circle cx="141.7" cy="63.2" r="3.5" fill="none" stroke="rgba(148,163,184,0.3)" stroke-width="0.7"/>
<circle cx="141.7" cy="63.2" r="1.5" fill="rgba(2,132,199,0.3)"/>
<circle cx="109.8" cy="109.7" r="7.5" fill="none" stroke="rgba(2,132,199,0.32)" stroke-width="1"/>
<circle cx="109.8" cy="109.7" r="3.5" fill="none" stroke="rgba(148,163,184,0.3)" stroke-width="0.7"/>
<circle cx="109.8" cy="109.7" r="1.5" fill="rgba(2,132,199,0.3)"/>
<circle cx="120.5" cy="97.8" r="7.5" fill="none" stroke="rgba(2,132,199,0.32)" stroke-width="1"/>
<circle cx="120.5" cy="97.8" r="3.5" fill="none" stroke="rgba(148,163,184,0.3)" stroke-width="0.7"/>
<circle cx="120.5" cy="97.8" r="1.5" fill="rgba(2,132,199,0.3)"/>
<circle cx="77.7" cy="134.4" r="7.5" fill="none" stroke="rgba(2,132,199,0.32)" stroke-width="1"/>
<circle cx="77.7" cy="134.4" r="3.5" fill="none" stroke="rgba(148,163,184,0.3)" stroke-width="0.7"/>
<circle cx="77.7" cy="134.4" r="1.5" fill="rgba(2,132,199,0.3)"/>
<circle cx="91.1" cy="125.6" r="7.5" fill="none" stroke="rgba(2,132,199,0.32)" stroke-width="1"/>
<circle cx="91.1" cy="125.6" r="3.5" fill="none" stroke="rgba(148,163,184,0.3)" stroke-width="0.7"/>
<circle cx="91.1" cy="125.6" r="1.5" fill="rgba(2,132,199,0.3)"/>
<circle cx="40.3" cy="149.9" r="7.5" fill="none" stroke="rgba(2,132,199,0.32)" stroke-width="1"/>
<circle cx="40.3" cy="149.9" r="3.5" fill="none" stroke="rgba(148,163,184,0.3)" stroke-width="0.7"/>
<circle cx="40.3" cy="149.9" r="1.5" fill="rgba(2,132,199,0.3)"/>
<circle cx="55.5" cy="144.9" r="7.5" fill="none" stroke="rgba(2,132,199,0.32)" stroke-width="1"/>
<circle cx="55.5" cy="144.9" r="3.5" fill="none" stroke="rgba(148,163,184,0.3)" stroke-width="0.7"/>
<circle cx="55.5" cy="144.9" r="1.5" fill="rgba(2,132,199,0.3)"/>
<circle cx="305.5" cy="54.0" r="10" fill="none" stroke="rgba(2,132,199,0.32)" stroke-width="1.2"/>
<circle cx="305.5" cy="54.0" r="5" fill="none" stroke="rgba(148,163,184,0.3)" stroke-width="0.8"/>
<circle cx="305.5" cy="54.0" r="2" fill="rgba(2,132,199,0.3)"/>
<circle cx="308.5" cy="32.3" r="10" fill="none" stroke="rgba(2,132,199,0.32)" stroke-width="1.2"/>
<circle cx="308.5" cy="32.3" r="5" fill="none" stroke="rgba(148,163,184,0.3)" stroke-width="0.8"/>
<circle cx="308.5" cy="32.3" r="2" fill="rgba(2,132,199,0.3)"/>
<circle cx="289.5" cy="111.3" r="10" fill="none" stroke="rgba(2,132,199,0.32)" stroke-width="1.2"/>
<circle cx="289.5" cy="111.3" r="5" fill="none" stroke="rgba(148,163,184,0.3)" stroke-width="0.8"/>
<circle cx="289.5" cy="111.3" r="2" fill="rgba(2,132,199,0.3)"/>
<circle cx="296.7" cy="90.5" r="10" fill="none" stroke="rgba(2,132,199,0.32)" stroke-width="1.2"/>
<circle cx="296.7" cy="90.5" r="5" fill="none" stroke="rgba(148,163,184,0.3)" stroke-width="0.8"/>
<circle cx="296.7" cy="90.5" r="2" fill="rgba(2,132,199,0.3)"/>
<circle cx="263.0" cy="164.5" r="10" fill="none" stroke="rgba(2,132,199,0.32)" stroke-width="1.2"/>
<circle cx="263.0" cy="164.5" r="5" fill="none" stroke="rgba(148,163,184,0.3)" stroke-width="0.8"/>
<circle cx="263.0" cy="164.5" r="2" fill="rgba(2,132,199,0.3)"/>
<circle cx="274.0" cy="145.5" r="10" fill="none" stroke="rgba(2,132,199,0.32)" stroke-width="1.2"/>
<circle cx="274.0" cy="145.5" r="5" fill="none" stroke="rgba(148,163,184,0.3)" stroke-width="0.8"/>
<circle cx="274.0" cy="145.5" r="2" fill="rgba(2,132,199,0.3)"/>
<circle cx="226.7" cy="211.7" r="10" fill="none" stroke="rgba(2,132,199,0.32)" stroke-width="1.2"/>
<circle cx="226.7" cy="211.7" r="5" fill="none" stroke="rgba(148,163,184,0.3)" stroke-width="0.8"/>
<circle cx="226.7" cy="211.7" r="2" fill="rgba(2,132,199,0.3)"/>
<circle cx="241.2" cy="195.1" r="10" fill="none" stroke="rgba(2,132,199,0.32)" stroke-width="1.2"/>
<circle cx="241.2" cy="195.1" r="5" fill="none" stroke="rgba(148,163,184,0.3)" stroke-width="0.8"/>
<circle cx="241.2" cy="195.1" r="2" fill="rgba(2,132,199,0.3)"/>
<circle cx="182.2" cy="251.1" r="10" fill="none" stroke="rgba(2,132,199,0.32)" stroke-width="1.2"/>
<circle cx="182.2" cy="251.1" r="5" fill="none" stroke="rgba(148,163,184,0.3)" stroke-width="0.8"/>
<circle cx="182.2" cy="251.1" r="2" fill="rgba(2,132,199,0.3)"/>
<circle cx="199.5" cy="237.5" r="10" fill="none" stroke="rgba(2,132,199,0.32)" stroke-width="1.2"/>
<circle cx="199.5" cy="237.5" r="5" fill="none" stroke="rgba(148,163,184,0.3)" stroke-width="0.8"/>
<circle cx="199.5" cy="237.5" r="2" fill="rgba(2,132,199,0.3)"/>
<circle cx="130.9" cy="281.2" r="10" fill="none" stroke="rgba(2,132,199,0.32)" stroke-width="1.2"/>
<circle cx="130.9" cy="281.2" r="5" fill="none" stroke="rgba(148,163,184,0.3)" stroke-width="0.8"/>
<circle cx="130.9" cy="281.2" r="2" fill="rgba(2,132,199,0.3)"/>
<circle cx="150.5" cy="271.2" r="10" fill="none" stroke="rgba(2,132,199,0.32)" stroke-width="1.2"/>
<circle cx="150.5" cy="271.2" r="5" fill="none" stroke="rgba(148,163,184,0.3)" stroke-width="0.8"/>
<circle cx="150.5" cy="271.2" r="2" fill="rgba(2,132,199,0.3)"/>
<circle cx="74.9" cy="301.0" r="10" fill="none" stroke="rgba(2,132,199,0.32)" stroke-width="1.2"/>
<circle cx="74.9" cy="301.0" r="5" fill="none" stroke="rgba(148,163,184,0.3)" stroke-width="0.8"/>
<circle cx="74.9" cy="301.0" r="2" fill="rgba(2,132,199,0.3)"/>
<circle cx="96.0" cy="295.0" r="10" fill="none" stroke="rgba(2,132,199,0.32)" stroke-width="1.2"/>
<circle cx="96.0" cy="295.0" r="5" fill="none" stroke="rgba(148,163,184,0.3)" stroke-width="0.8"/>
<circle cx="96.0" cy="295.0" r="2" fill="rgba(2,132,199,0.3)"/>
<line x1="193.2" y1="51.8" x2="251.1" y2="67.3" stroke="rgba(148,163,184,0.3)" stroke-width="0.8"/>
<line x1="173.2" y1="100.0" x2="225.2" y2="130.0" stroke="rgba(148,163,184,0.3)" stroke-width="0.8"/>
<line x1="141.4" y1="141.4" x2="183.8" y2="183.8" stroke="rgba(148,163,184,0.3)" stroke-width="0.8"/>
<line x1="100.0" y1="173.2" x2="130.0" y2="225.2" stroke="rgba(148,163,184,0.3)" stroke-width="0.8"/>
<line x1="51.8" y1="193.2" x2="67.3" y2="251.1" stroke="rgba(148,163,184,0.3)" stroke-width="0.8"/>
</svg>